<mxfile host="app.diagrams.net" modified="2022-07-19T05:41:30.762Z" agent="5.0 (X11; Linux x86_64) AppleWebKit/537.36 (KHTML, like Gecko) Chrome/103.0.0.0 Safari/537.36" etag="gHx35PaUwE8FmQM3etga" version="20.1.1" type="github">
  <diagram id="vMn8Qv5hI4jqmkz80U7t" name="第 1 页">
    <mxGraphModel dx="1422" dy="748" grid="1" gridSize="10" guides="1" tooltips="1" connect="1" arrows="1" fold="1" page="1" pageScale="1" pageWidth="827" pageHeight="1169" math="0" shadow="0">
      <root>
        <mxCell id="0" />
        <mxCell id="1" parent="0" />
        <mxCell id="LFxtWxais82becCqxhC2-1" style="edgeStyle=orthogonalEdgeStyle;rounded=1;orthogonalLoop=1;jettySize=auto;html=1;exitX=1;exitY=0.5;exitDx=0;exitDy=0;entryX=0;entryY=0.5;entryDx=0;entryDy=0;sketch=1;curved=1;" parent="1" source="LFxtWxais82becCqxhC2-2" target="LFxtWxais82becCqxhC2-4" edge="1">
          <mxGeometry relative="1" as="geometry" />
        </mxCell>
        <mxCell id="LFxtWxais82becCqxhC2-2" value="填写员工签署基本信息" style="rounded=1;whiteSpace=wrap;html=1;sketch=1;strokeColor=#82B366;fillColor=#D5E8D4;" parent="1" vertex="1">
          <mxGeometry x="90" y="120" width="120" height="60" as="geometry" />
        </mxCell>
        <mxCell id="LFxtWxais82becCqxhC2-3" style="edgeStyle=orthogonalEdgeStyle;rounded=1;orthogonalLoop=1;jettySize=auto;html=1;exitX=1;exitY=0.5;exitDx=0;exitDy=0;entryX=0;entryY=0.5;entryDx=0;entryDy=0;sketch=1;curved=1;" parent="1" source="LFxtWxais82becCqxhC2-4" target="LFxtWxais82becCqxhC2-6" edge="1">
          <mxGeometry relative="1" as="geometry" />
        </mxCell>
        <mxCell id="LFxtWxais82becCqxhC2-4" value="接收员工签署验证码" style="rounded=1;whiteSpace=wrap;html=1;sketch=1;align=center;fillColor=#D5E8D4;strokeColor=#82B366;" parent="1" vertex="1">
          <mxGeometry x="260" y="120" width="120" height="60" as="geometry" />
        </mxCell>
        <mxCell id="LFxtWxais82becCqxhC2-5" style="edgeStyle=orthogonalEdgeStyle;rounded=1;orthogonalLoop=1;jettySize=auto;html=1;exitX=0.5;exitY=1;exitDx=0;exitDy=0;entryX=0.5;entryY=0;entryDx=0;entryDy=0;sketch=1;curved=1;" parent="1" source="LFxtWxais82becCqxhC2-6" edge="1">
          <mxGeometry relative="1" as="geometry">
            <mxPoint x="490" y="240" as="targetPoint" />
          </mxGeometry>
        </mxCell>
        <mxCell id="LFxtWxais82becCqxhC2-6" value="提交签署信息" style="rounded=1;whiteSpace=wrap;html=1;sketch=1;fillColor=#D5E8D4;strokeColor=#82B366;" parent="1" vertex="1">
          <mxGeometry x="430" y="120" width="120" height="60" as="geometry" />
        </mxCell>
        <mxCell id="LFxtWxais82becCqxhC2-7" style="edgeStyle=orthogonalEdgeStyle;rounded=1;orthogonalLoop=1;jettySize=auto;html=1;exitX=0;exitY=0.5;exitDx=0;exitDy=0;entryX=1;entryY=0.5;entryDx=0;entryDy=0;sketch=1;curved=1;" parent="1" target="LFxtWxais82becCqxhC2-10" edge="1">
          <mxGeometry relative="1" as="geometry">
            <mxPoint x="430" y="270" as="sourcePoint" />
          </mxGeometry>
        </mxCell>
        <mxCell id="LFxtWxais82becCqxhC2-9" style="edgeStyle=orthogonalEdgeStyle;rounded=1;orthogonalLoop=1;jettySize=auto;html=1;exitX=0;exitY=0.5;exitDx=0;exitDy=0;entryX=1;entryY=0.5;entryDx=0;entryDy=0;sketch=1;curved=1;" parent="1" source="LFxtWxais82becCqxhC2-10" target="LFxtWxais82becCqxhC2-11" edge="1">
          <mxGeometry relative="1" as="geometry" />
        </mxCell>
        <mxCell id="LFxtWxais82becCqxhC2-10" value="审核完成" style="rounded=1;whiteSpace=wrap;html=1;sketch=1;fillColor=#D5E8D4;strokeColor=#82B366;" parent="1" vertex="1">
          <mxGeometry x="260" y="240" width="120" height="60" as="geometry" />
        </mxCell>
        <mxCell id="LFxtWxais82becCqxhC2-11" value="完成员工CLA签署" style="rounded=1;whiteSpace=wrap;html=1;sketch=1;fillColor=#D5E8D4;strokeColor=#82B366;" parent="1" vertex="1">
          <mxGeometry x="90" y="240" width="120" height="60" as="geometry" />
        </mxCell>
        <mxCell id="n5pQmUo-w2hh8xrAQkUa-1" value="等待企业管理员审核" style="rounded=1;whiteSpace=wrap;html=1;sketch=1;fillColor=#D5E8D4;strokeColor=#82B366;" vertex="1" parent="1">
          <mxGeometry x="430" y="240" width="120" height="60" as="geometry" />
        </mxCell>
      </root>
    </mxGraphModel>
  </diagram>
</mxfile>
